<?xml version="1.0" encoding="UTF-8"?>
<svg version="1.1" xmlns="http://www.w3.org/2000/svg" width="498" height="192">
<path d="M0 0 C8.25 0 16.5 0 25 0 C33.830282 21.74788253 42.63270834 43.50694525 51.41544724 65.27406693 C52.1843227 67.17962546 52.95325665 69.08516039 53.72219849 70.99069214 C55.1835415 74.61218232 56.64454449 78.23380962 58.10546875 81.85546875 C58.54037628 82.93338684 58.97528381 84.01130493 59.42337036 85.12188721 C61.95947675 91.41039023 64.48571351 97.70274033 67 104 C67.09942902 102.93054138 67.09942902 102.93054138 67.2008667 101.83947754 C68.04848204 92.72612253 68.89832611 83.61297652 69.75 74.5 C69.81783943 73.77409668 69.88567886 73.04819336 69.95557404 72.30029297 C72.20958563 48.1905161 74.53892115 24.08961889 77 0 C86.24 0 95.48 0 105 0 C108.30753913 7.93809391 111.54931878 15.87156527 114.64453125 23.890625 C115.05918137 24.96125183 115.47383148 26.03187866 115.90104675 27.13494873 C117.20630017 30.50607896 118.50943798 33.8780222 119.8125 37.25 C120.70493742 39.55604404 121.59751432 41.86203411 122.49023438 44.16796875 C124.66176649 49.77802389 126.83156913 55.38874547 129 61 C132.08565639 54.26030969 134.84490578 47.42261488 137.51171875 40.5078125 C137.92541214 39.44005585 138.33910553 38.37229919 138.76533508 37.27218628 C139.63276562 35.03212099 140.49913913 32.79164613 141.36450195 30.55078125 C142.69186888 27.11368718 144.02241028 23.67783529 145.35351562 20.2421875 C146.19810004 18.0599668 147.04250739 15.87767755 147.88671875 13.6953125 C148.28461105 12.66721466 148.68250336 11.63911682 149.092453 10.5798645 C149.45986099 9.62812347 149.82726898 8.67638245 150.20581055 7.69580078 C150.52905807 6.85912872 150.8523056 6.02245667 151.18534851 5.16043091 C151.82869368 3.45429915 152.42339107 1.72982679 153 0 C162.57 0 172.14 0 182 0 C183.32681076 14.58520576 184.64917344 29.170796 185.96332645 43.75714779 C186.5736128 50.52936703 187.18592929 57.30139138 187.80297852 64.07299805 C188.39789764 70.60180753 188.98722094 77.13110616 189.57305717 83.66073799 C189.798057 86.15810653 190.0249662 88.65530376 190.25377083 91.15232658 C190.57268008 94.6361986 190.88493723 98.12060514 191.19555664 101.60522461 C191.2926593 102.64891205 191.38976196 103.69259949 191.48980713 104.76791382 C191.57257401 105.71167374 191.65534088 106.65543365 191.74061584 107.62779236 C191.81528108 108.45279708 191.88994631 109.2778018 191.96687412 110.12780666 C191.97780566 110.74563046 191.9887372 111.36345427 192 112 C191 113 191 113 188.49975586 113.11352539 C187.41573486 113.10828857 186.33171387 113.10305176 185.21484375 113.09765625 C183.46010742 113.09282227 183.46010742 113.09282227 181.66992188 113.08789062 C180.43822266 113.07951172 179.20652344 113.07113281 177.9375 113.0625 C176.08415039 113.05573242 176.08415039 113.05573242 174.19335938 113.04882812 C171.12885883 113.03699608 168.06445279 113.02051173 165 113 C164.93958023 112.26750534 164.87916046 111.53501068 164.81690979 110.78031921 C164.24699775 103.87906932 163.67352795 96.97812332 163.09605503 90.07750225 C162.79929277 86.52977388 162.50390994 82.98194187 162.21166992 79.43383789 C161.87567856 75.35528305 161.53370538 71.27724908 161.19140625 67.19921875 C161.03509483 65.28661507 161.03509483 65.28661507 160.87562561 63.33537292 C160.77559738 62.15437515 160.67556915 60.97337738 160.57250977 59.7565918 C160.44260399 58.19439156 160.44260399 58.19439156 160.31007385 56.60063171 C160.07563826 53.89076887 160.07563826 53.89076887 159 51 C158.63081955 52.07994987 158.63081955 52.07994987 158.25418091 53.18171692 C155.93397573 59.96641539 153.60962235 66.74967148 151.28059578 73.53134632 C150.08336792 77.0179192 148.88775181 80.50502746 147.69580078 83.9934082 C146.54544942 87.35984963 145.39088857 90.72481991 144.23339462 94.08881187 C143.79252769 95.37249951 143.35318013 96.65670999 142.91537857 97.9414463 C142.3019396 99.74074299 141.68259353 101.53802248 141.06298828 103.33520508 C140.53670334 104.87075798 140.53670334 104.87075798 139.99978638 106.43733215 C139 109 139 109 137 112 C134.2114711 112.22107787 131.65346819 112.28107535 128.875 112.1875 C127.74384766 112.16719727 127.74384766 112.16719727 126.58984375 112.14648438 C124.72625873 112.11109985 122.86304022 112.05729167 121 112 C118.65057022 105.38436002 116.30295545 98.76807793 113.95654297 92.15136719 C113.15975062 89.90512861 112.3625579 87.659032 111.56494141 85.41308594 C110.41200629 82.16639755 109.26055941 78.91918449 108.109375 75.671875 C107.58256134 74.18986603 107.58256134 74.18986603 107.04510498 72.67791748 C106.02159058 69.78815493 105.00743901 66.89540511 104 64 C103.62202271 62.91416626 103.24404541 61.82833252 102.85461426 60.70959473 C102.48783569 59.63657104 102.12105713 58.56354736 101.74316406 57.45800781 C101.40899475 56.48438293 101.07482544 55.51075806 100.73052979 54.50762939 C100 52 100 52 100 49 C99.34 49 98.68 49 98 49 C98.0097435 49.72363235 98.019487 50.44726471 98.02952576 51.19282532 C98.08552585 58.60325677 97.75316447 65.90838279 97.16015625 73.29296875 C97.07374374 74.405616 96.98733124 75.51826324 96.89830017 76.66462708 C96.71647606 78.98989606 96.532335 81.31498496 96.34594727 83.63989258 C96.06023912 87.21579701 95.78456262 90.7923829 95.50976562 94.36914062 C95.33132343 96.63546353 95.15230815 98.90174141 94.97265625 101.16796875 C94.8491555 102.77710396 94.8491555 102.77710396 94.72315979 104.41874695 C94.64315231 105.40099747 94.56314484 106.38324799 94.48071289 107.39526367 C94.41187393 108.26285812 94.34303497 109.13045258 94.27210999 110.02433777 C94 112 94 112 93 113 C91.37325222 113.09340434 89.74245949 113.11745171 88.11303711 113.11352539 C87.07203354 113.11344986 86.03102997 113.11337433 84.95848083 113.11329651 C83.8262056 113.10813522 82.69393036 113.10297394 81.52734375 113.09765625 C79.79817467 113.09553383 79.79817467 113.09553383 78.03407288 113.09336853 C74.33518936 113.08775005 70.63636536 113.07519442 66.9375 113.0625 C64.43684983 113.05748738 61.93619871 113.05292406 59.43554688 113.04882812 C53.29032295 113.0386235 47.14522845 113.01905169 41 113 C37.04 102.11 37.04 102.11 33 91 C19.47 91 5.94 91 -8 91 C-10.59072904 97.86497422 -10.59072904 97.86497422 -13.17553711 104.73217773 C-13.6590564 106.00750366 -13.6590564 106.00750366 -14.15234375 107.30859375 C-14.48226318 108.18314209 -14.81218262 109.05769043 -15.15209961 109.95874023 C-16 112 -16 112 -17 113 C-19.07262076 113.08767112 -21.14820294 113.10695873 -23.22265625 113.09765625 C-25.11274414 113.09282227 -25.11274414 113.09282227 -27.04101562 113.08789062 C-28.38151109 113.07953403 -29.72200588 113.07106907 -31.0625 113.0625 C-32.40689942 113.0574866 -33.7513006 113.05292342 -35.09570312 113.04882812 C-38.39717941 113.03699488 -41.69856803 113.02050971 -45 113 C-42.93548263 105.2600309 -40.03349527 97.94291889 -36.9331665 90.57156372 C-35.37929223 86.87445404 -33.8435352 83.16984619 -32.30859375 79.46484375 C-31.97303467 78.65518661 -31.63747559 77.84552948 -31.29174805 77.01133728 C-25.76557238 63.63633123 -20.4525787 50.17396729 -15.10571289 36.7265625 C-10.20734185 24.42292879 -5.18005314 12.18801008 0 0 Z M12 37 C10.72166839 40.121983 9.45377908 43.24811122 8.1875 46.375 C7.83107422 47.24511719 7.47464844 48.11523438 7.10742188 49.01171875 C6.75615234 49.88183594 6.40488281 50.75195312 6.04296875 51.6484375 C5.72352295 52.43395996 5.40407715 53.21948242 5.07495117 54.02880859 C3.53309417 58.29053916 2.30228111 62.65906297 1 67 C8.59 67 16.18 67 24 67 C21.7098277 59.1939916 21.7098277 59.1939916 18.95703125 51.6484375 C18.60576172 50.77832031 18.25449219 49.90820312 17.89257812 49.01171875 C17.35793945 47.70654297 17.35793945 47.70654297 16.8125 46.375 C16.44447266 45.46621094 16.07644531 44.55742188 15.69726562 43.62109375 C14.80216521 41.41240441 13.9030465 39.20544952 13 37 C12.67 37 12.34 37 12 37 Z " fill="#5B16E5" transform="translate(68,28)"/>
<path d="M0 0 C2.47391364 2.17629997 4.80471787 4.42003278 7.09765625 6.78515625 C7.67 7.34847656 8.24234375 7.91179688 8.83203125 8.4921875 C19.38701326 19.67285143 22.62463518 34.6907283 22.51733398 49.56884766 C21.98995099 66.64520374 15.44352405 80.54748654 3.05859375 92.3046875 C-9.85970327 103.12674371 -23.90145887 106.54991418 -40.5546875 105.5703125 C-55.65644582 103.81817479 -69.54372625 97.10100944 -79.27734375 85.16796875 C-89.77942811 69.76827774 -93.64578884 51.9538798 -90.2109375 33.58203125 C-86.11798297 16.66220249 -75.69785634 3.83850107 -60.90234375 -5.21484375 C-41.30887897 -15.22001725 -17.48627104 -13.34416646 0 0 Z M-53.9609375 21.83984375 C-61.18331287 30.51870646 -63.82577618 40.60136345 -62.90234375 51.78515625 C-61.40154258 61.32414671 -58.29936795 69.66630496 -50.46484375 75.72265625 C-43.51108624 80.10654686 -35.93293143 80.64147379 -27.90234375 79.78515625 C-20.79902297 77.71290929 -15.15810262 74.15740824 -11.27734375 67.78515625 C-5.43375833 56.59570405 -4.60526027 45.73984236 -7.87109375 33.75 C-10.84893441 25.1887081 -15.97148424 20.01494799 -23.90234375 15.78515625 C-34.26826765 12.32984828 -46.16390096 14.05760235 -53.9609375 21.83984375 Z " fill="#5B16E5" transform="translate(354.90234375,37.21484375)"/>
<path d="M0 0 C-0.57229633 5.19228855 -3.0982161 9.3103703 -5.5625 13.8125 C-6.19961914 14.99489258 -6.19961914 14.99489258 -6.84960938 16.20117188 C-7.89396554 18.1373378 -8.9442077 20.07005367 -10 22 C-12.50599917 21.00207533 -15.0077829 19.99677739 -17.5 18.96484375 C-18.325 18.62582031 -19.15 18.28679688 -20 17.9375 C-20.825 17.59589844 -21.65 17.25429688 -22.5 16.90234375 C-28.46198239 14.75044073 -34.31407018 13.93576366 -40.3125 16.3125 C-43.21553887 17.87948487 -43.21553887 17.87948487 -45 21 C-45.63901252 24.3993696 -45.63901252 24.3993696 -44 28 C-38.07105843 32.79406366 -30.84694201 35.52449197 -23.875 38.4375 C-12.96827001 43.01083313 -4.4179577 49.93126767 1.875 60 C5.06594436 68.48370836 3.88219935 79.32752539 0.37109375 87.50390625 C-4.82085671 96.95591863 -11.92577986 101.51639117 -22 105 C-39.49660458 110.0796594 -58.01811774 105.81349764 -73.87109375 97.9140625 C-77.09797435 95.94006563 -79.44791169 93.77629046 -82 91 C-80.10725467 87.65252942 -78.18204682 84.32491778 -76.25 81 C-75.71117187 80.04609375 -75.17234375 79.0921875 -74.6171875 78.109375 C-74.08867187 77.20703125 -73.56015625 76.3046875 -73.015625 75.375 C-72.29294434 74.11816406 -72.29294434 74.11816406 -71.55566406 72.8359375 C-71.04229492 72.23007813 -70.52892578 71.62421875 -70 71 C-65.69073862 71 -64.86803562 71.466744 -61.4375 73.75 C-52.77148473 79.11225578 -44.31800534 82.39432505 -34 81 C-29.63063511 79.48130027 -29.63063511 79.48130027 -27 76 C-26.52755212 72.85034748 -26.27020791 71.0096852 -27 68 C-31.18200855 62.60213593 -38.92725404 59.97232662 -44.92382812 57.0246582 C-56.49952201 51.32176801 -66.19744363 45.58095087 -71.1953125 32.98828125 C-73.35234518 24.97794145 -72.42047517 16.52261088 -69 9 C-63.24773684 -0.63387163 -54.1347772 -6.91901048 -43.3125 -9.6875 C-27.41089603 -11.18765132 -13.79086517 -7.83571885 0 0 Z " fill="#5B16E4" transform="translate(464,36)"/>
</svg>
