<svg xmlns="http://www.w3.org/2000/svg" xmlns:xlink="http://www.w3.org/1999/xlink" width="498" zoomAndPan="magnify" viewBox="0 0 373.5 143.999998" height="192" preserveAspectRatio="xMidYMid meet" version="1.0"><defs><g/><clipPath id="0e3cff82cf"><path d="M 0 16 L 373 16 L 373 143.902344 L 0 143.902344 Z M 0 16 " clip-rule="nonzero"/></clipPath><clipPath id="3d8083023b"><path d="M 0.238281 8 L 96 8 L 96 102 L 0.238281 102 Z M 0.238281 8 " clip-rule="nonzero"/></clipPath><clipPath id="495253475a"><rect x="0" width="373" y="0" height="128"/></clipPath></defs><g clip-path="url(#0e3cff82cf)"><g transform="matrix(1, 0, 0, 1, 0, 16)"><g clip-path="url(#495253475a)"><g clip-path="url(#3d8083023b)"><g fill="#304c89" fill-opacity="1"><g transform="translate(3.62494, 101.933466)"><g><path d="M 54.34375 -93.59375 L 92.125 0 L 69.203125 0 L 62.28125 -18.71875 L 26.65625 -18.71875 L 19.734375 0 L -3.171875 0 L 34.609375 -93.59375 Z M 55.03125 -37.4375 L 44.59375 -64.671875 L 44.359375 -64.671875 L 33.921875 -37.4375 Z M 55.03125 -37.4375 "/></g></g></g></g><g fill="#304c89" fill-opacity="1"><g transform="translate(92.569741, 101.933466)"><g><path d="M 84.1875 0 L 79.75 -55.484375 L 79.1875 -55.484375 L 60.015625 -0.5625 L 47.3125 -0.5625 L 28.140625 -55.484375 L 27.5625 -55.484375 L 23.140625 0 L 1.8125 0 L 10.203125 -93.59375 L 32.90625 -93.59375 L 53.65625 -39.59375 L 74.421875 -93.59375 L 97.109375 -93.59375 L 105.515625 0 Z M 84.1875 0 "/></g></g></g><g fill="#304c89" fill-opacity="1"><g transform="translate(199.893446, 101.933466)"><g><path d="M 2.609375 -46.859375 C 2.609375 -60.398438 7.222656 -71.859375 16.453125 -81.234375 C 25.679688 -90.609375 36.800781 -95.296875 49.8125 -95.296875 C 62.894531 -95.296875 74.007812 -90.625 83.15625 -81.28125 C 92.3125 -71.945312 96.890625 -60.472656 96.890625 -46.859375 C 96.890625 -33.171875 92.390625 -21.65625 83.390625 -12.3125 C 74.390625 -2.96875 63.195312 1.703125 49.8125 1.703125 C 36.113281 1.703125 24.820312 -2.925781 15.9375 -12.1875 C 7.050781 -21.457031 2.609375 -33.015625 2.609375 -46.859375 Z M 25.640625 -46.859375 C 25.640625 -41.941406 26.394531 -37.457031 27.90625 -33.40625 C 29.414062 -29.363281 32.0625 -25.941406 35.84375 -23.140625 C 39.632812 -20.347656 44.289062 -18.953125 49.8125 -18.953125 C 57.75 -18.953125 63.738281 -21.671875 67.78125 -27.109375 C 71.832031 -32.554688 73.859375 -39.140625 73.859375 -46.859375 C 73.859375 -54.492188 71.796875 -61.050781 67.671875 -66.53125 C 63.546875 -72.019531 57.59375 -74.765625 49.8125 -74.765625 C 42.09375 -74.765625 36.132812 -72.019531 31.9375 -66.53125 C 27.738281 -61.050781 25.640625 -54.492188 25.640625 -46.859375 Z M 25.640625 -46.859375 "/></g></g></g><g fill="#304c89" fill-opacity="1"><g transform="translate(299.389113, 101.933466)"><g><path d="M 41.296875 -95.296875 C 46.359375 -95.296875 51.3125 -94.554688 56.15625 -93.078125 C 61 -91.609375 64.59375 -90.15625 66.9375 -88.71875 L 70.34375 -86.453125 L 61.71875 -69.4375 C 61.039062 -69.882812 60.09375 -70.46875 58.875 -71.1875 C 57.664062 -71.90625 55.394531 -72.867188 52.0625 -74.078125 C 48.738281 -75.296875 45.640625 -75.90625 42.765625 -75.90625 C 39.210938 -75.90625 36.472656 -75.144531 34.546875 -73.625 C 32.617188 -72.113281 31.65625 -70.070312 31.65625 -67.5 C 31.65625 -66.21875 32.109375 -65.023438 33.015625 -63.921875 C 33.921875 -62.828125 35.46875 -61.65625 37.65625 -60.40625 C 39.851562 -59.164062 41.785156 -58.164062 43.453125 -57.40625 C 45.117188 -56.644531 47.691406 -55.507812 51.171875 -54 C 57.222656 -51.425781 62.382812 -47.925781 66.65625 -43.5 C 70.925781 -39.082031 73.0625 -34.078125 73.0625 -28.484375 C 73.0625 -23.109375 72.097656 -18.414062 70.171875 -14.40625 C 68.242188 -10.394531 65.597656 -7.253906 62.234375 -4.984375 C 58.867188 -2.722656 55.140625 -1.046875 51.046875 0.046875 C 46.960938 1.148438 42.539062 1.703125 37.78125 1.703125 C 33.695312 1.703125 29.6875 1.285156 25.75 0.453125 C 21.820312 -0.378906 18.53125 -1.414062 15.875 -2.65625 C 13.226562 -3.90625 10.847656 -5.132812 8.734375 -6.34375 C 6.617188 -7.5625 5.066406 -8.585938 4.078125 -9.421875 L 2.609375 -10.671875 L 13.28125 -28.59375 C 14.1875 -27.832031 15.429688 -26.863281 17.015625 -25.6875 C 18.609375 -24.519531 21.425781 -22.953125 25.46875 -20.984375 C 29.519531 -19.015625 33.09375 -18.03125 36.1875 -18.03125 C 45.1875 -18.03125 49.6875 -21.097656 49.6875 -27.234375 C 49.6875 -28.515625 49.363281 -29.703125 48.71875 -30.796875 C 48.082031 -31.898438 46.953125 -33 45.328125 -34.09375 C 43.703125 -35.1875 42.265625 -36.054688 41.015625 -36.703125 C 39.765625 -37.347656 37.71875 -38.332031 34.875 -39.65625 C 32.039062 -40.976562 29.945312 -41.976562 28.59375 -42.65625 C 22.914062 -45.457031 18.523438 -48.957031 15.421875 -53.15625 C 12.328125 -57.351562 10.78125 -61.867188 10.78125 -66.703125 C 10.78125 -75.097656 13.878906 -81.960938 20.078125 -87.296875 C 26.285156 -92.628906 33.359375 -95.296875 41.296875 -95.296875 Z M 41.296875 -95.296875 "/></g></g></g></g></g></g></svg>