<svg xmlns="http://www.w3.org/2000/svg" xmlns:xlink="http://www.w3.org/1999/xlink" width="750" zoomAndPan="magnify" viewBox="0 0 562.5 143.999998" height="192" preserveAspectRatio="xMidYMid meet" version="1.0"><defs><g/><clipPath id="69c72eb247"><path d="M 1 11 L 400 11 L 400 143.933594 L 1 143.933594 Z M 1 11 " clip-rule="nonzero"/></clipPath><clipPath id="a8737ae11c"><rect x="0" width="399" y="0" height="133"/></clipPath><clipPath id="b8481f379e"><rect x="0" width="137" y="0" height="69"/></clipPath></defs><g clip-path="url(#69c72eb247)"><g transform="matrix(1, 0, 0, 1, 1, 11)"><g clip-path="url(#a8737ae11c)"><g fill="#6265fb" fill-opacity="1"><g transform="translate(4.618504, 107.681928)"><g><path d="M 57.4375 -98.921875 L 97.359375 0 L 73.140625 0 L 65.828125 -19.78125 L 28.171875 -19.78125 L 20.859375 0 L -3.359375 0 L 36.578125 -98.921875 Z M 58.15625 -39.5625 L 47.125 -68.34375 L 46.890625 -68.34375 L 35.859375 -39.5625 Z M 58.15625 -39.5625 "/></g></g></g><g fill="#6265fb" fill-opacity="1"><g transform="translate(98.616014, 107.681928)"><g><path d="M 88.96875 0 L 84.296875 -58.640625 L 83.6875 -58.640625 L 63.4375 -0.59375 L 50 -0.59375 L 29.734375 -58.640625 L 29.140625 -58.640625 L 24.453125 0 L 1.921875 0 L 10.796875 -98.921875 L 34.765625 -98.921875 L 56.71875 -41.84375 L 78.65625 -98.921875 L 102.640625 -98.921875 L 111.515625 0 Z M 88.96875 0 "/></g></g></g><g fill="#6265fb" fill-opacity="1"><g transform="translate(212.036483, 107.681928)"><g><path d="M 2.765625 -49.515625 C 2.765625 -63.828125 7.640625 -75.9375 17.390625 -85.84375 C 27.140625 -95.757812 38.890625 -100.71875 52.640625 -100.71875 C 66.460938 -100.71875 78.210938 -95.78125 87.890625 -85.90625 C 97.566406 -76.039062 102.40625 -63.910156 102.40625 -49.515625 C 102.40625 -35.046875 97.644531 -22.875 88.125 -13 C 78.613281 -3.132812 66.785156 1.796875 52.640625 1.796875 C 38.171875 1.796875 26.238281 -3.097656 16.84375 -12.890625 C 7.457031 -22.679688 2.765625 -34.890625 2.765625 -49.515625 Z M 27.09375 -49.515625 C 27.09375 -44.328125 27.890625 -39.59375 29.484375 -35.3125 C 31.085938 -31.03125 33.890625 -27.410156 37.890625 -24.453125 C 41.890625 -21.503906 46.804688 -20.03125 52.640625 -20.03125 C 61.035156 -20.03125 67.367188 -22.90625 71.640625 -28.65625 C 75.921875 -34.414062 78.0625 -41.367188 78.0625 -49.515625 C 78.0625 -57.585938 75.878906 -64.519531 71.515625 -70.3125 C 67.160156 -76.113281 60.867188 -79.015625 52.640625 -79.015625 C 44.484375 -79.015625 38.1875 -76.113281 33.75 -70.3125 C 29.3125 -64.519531 27.09375 -57.585938 27.09375 -49.515625 Z M 27.09375 -49.515625 "/></g></g></g><g fill="#6265fb" fill-opacity="1"><g transform="translate(317.184225, 107.681928)"><g><path d="M 43.640625 -100.71875 C 48.992188 -100.71875 54.226562 -99.9375 59.34375 -98.375 C 64.46875 -96.820312 68.269531 -95.285156 70.75 -93.765625 L 74.34375 -91.375 L 65.234375 -73.375 C 64.515625 -73.863281 63.515625 -74.484375 62.234375 -75.234375 C 60.953125 -75.992188 58.550781 -77.015625 55.03125 -78.296875 C 51.519531 -79.578125 48.242188 -80.21875 45.203125 -80.21875 C 41.441406 -80.21875 38.539062 -79.414062 36.5 -77.8125 C 34.46875 -76.21875 33.453125 -74.0625 33.453125 -71.34375 C 33.453125 -69.988281 33.929688 -68.726562 34.890625 -67.5625 C 35.847656 -66.40625 37.484375 -65.164062 39.796875 -63.84375 C 42.117188 -62.53125 44.160156 -61.472656 45.921875 -60.671875 C 47.679688 -59.867188 50.398438 -58.671875 54.078125 -57.078125 C 60.472656 -54.359375 65.925781 -50.660156 70.4375 -45.984375 C 74.957031 -41.304688 77.21875 -36.007812 77.21875 -30.09375 C 77.21875 -24.414062 76.195312 -19.457031 74.15625 -15.21875 C 72.125 -10.988281 69.328125 -7.671875 65.765625 -5.265625 C 62.210938 -2.867188 58.273438 -1.09375 53.953125 0.0625 C 49.640625 1.21875 44.960938 1.796875 39.921875 1.796875 C 35.609375 1.796875 31.375 1.351562 27.21875 0.46875 C 23.0625 -0.40625 19.582031 -1.5 16.78125 -2.8125 C 13.988281 -4.132812 11.472656 -5.4375 9.234375 -6.71875 C 6.992188 -8 5.351562 -9.078125 4.3125 -9.953125 L 2.765625 -11.265625 L 14.03125 -30.21875 C 14.988281 -29.414062 16.304688 -28.394531 17.984375 -27.15625 C 19.660156 -25.914062 22.632812 -24.253906 26.90625 -22.171875 C 31.1875 -20.097656 34.96875 -19.0625 38.25 -19.0625 C 47.757812 -19.0625 52.515625 -22.300781 52.515625 -28.78125 C 52.515625 -30.132812 52.175781 -31.390625 51.5 -32.546875 C 50.820312 -33.710938 49.625 -34.875 47.90625 -36.03125 C 46.1875 -37.1875 44.664062 -38.101562 43.34375 -38.78125 C 42.03125 -39.46875 39.875 -40.507812 36.875 -41.90625 C 33.875 -43.300781 31.65625 -44.359375 30.21875 -45.078125 C 24.21875 -48.035156 19.578125 -51.734375 16.296875 -56.171875 C 13.023438 -60.609375 11.390625 -65.382812 11.390625 -70.5 C 11.390625 -79.375 14.664062 -86.628906 21.21875 -92.265625 C 27.78125 -97.898438 35.253906 -100.71875 43.640625 -100.71875 Z M 43.640625 -100.71875 "/></g></g></g></g></g></g><g transform="matrix(1, 0, 0, 1, 425, 37)"><g clip-path="url(#b8481f379e)"><g fill="#737373" fill-opacity="1"><g transform="translate(0.30193, 51.633233)"><g><path d="M 14.09375 -33.40625 C 17.738281 -33.40625 20.894531 -32.726562 23.5625 -31.375 C 26.226562 -30.019531 28.269531 -28.078125 29.6875 -25.546875 C 31.113281 -23.023438 31.828125 -20.054688 31.828125 -16.640625 C 31.828125 -13.210938 31.113281 -10.242188 29.6875 -7.734375 C 28.269531 -5.234375 26.226562 -3.316406 23.5625 -1.984375 C 20.894531 -0.660156 17.738281 0 14.09375 0 L 3.6875 0 L 3.6875 -33.40625 Z M 14.09375 -3.59375 C 18.40625 -3.59375 21.695312 -4.734375 23.96875 -7.015625 C 26.238281 -9.304688 27.375 -12.515625 27.375 -16.640625 C 27.375 -20.785156 26.226562 -24.023438 23.9375 -26.359375 C 21.65625 -28.691406 18.375 -29.859375 14.09375 -29.859375 L 8.046875 -29.859375 L 8.046875 -3.59375 Z M 14.09375 -3.59375 "/></g></g></g><g fill="#737373" fill-opacity="1"><g transform="translate(34.18712, 51.633233)"><g><path d="M 18.84375 0.328125 C 15.738281 0.328125 12.90625 -0.394531 10.34375 -1.84375 C 7.789062 -3.300781 5.769531 -5.332031 4.28125 -7.9375 C 2.800781 -10.539062 2.0625 -13.472656 2.0625 -16.734375 C 2.0625 -19.992188 2.800781 -22.925781 4.28125 -25.53125 C 5.769531 -28.132812 7.789062 -30.160156 10.34375 -31.609375 C 12.90625 -33.066406 15.738281 -33.796875 18.84375 -33.796875 C 21.96875 -33.796875 24.804688 -33.066406 27.359375 -31.609375 C 29.921875 -30.160156 31.9375 -28.140625 33.40625 -25.546875 C 34.882812 -22.960938 35.625 -20.023438 35.625 -16.734375 C 35.625 -13.441406 34.882812 -10.5 33.40625 -7.90625 C 31.9375 -5.320312 29.921875 -3.300781 27.359375 -1.84375 C 24.804688 -0.394531 21.96875 0.328125 18.84375 0.328125 Z M 18.84375 -3.453125 C 21.175781 -3.453125 23.273438 -3.992188 25.140625 -5.078125 C 27.015625 -6.171875 28.484375 -7.722656 29.546875 -9.734375 C 30.617188 -11.742188 31.15625 -14.078125 31.15625 -16.734375 C 31.15625 -19.410156 30.617188 -21.75 29.546875 -23.75 C 28.484375 -25.75 27.023438 -27.289062 25.171875 -28.375 C 23.316406 -29.46875 21.207031 -30.015625 18.84375 -30.015625 C 16.476562 -30.015625 14.367188 -29.46875 12.515625 -28.375 C 10.660156 -27.289062 9.195312 -25.75 8.125 -23.75 C 7.050781 -21.75 6.515625 -19.410156 6.515625 -16.734375 C 6.515625 -14.078125 7.050781 -11.742188 8.125 -9.734375 C 9.195312 -7.722656 10.664062 -6.171875 12.53125 -5.078125 C 14.40625 -3.992188 16.507812 -3.453125 18.84375 -3.453125 Z M 18.84375 -3.453125 "/></g></g></g><g fill="#737373" fill-opacity="1"><g transform="translate(71.858632, 51.633233)"><g><path d="M 2.0625 -16.734375 C 2.0625 -19.992188 2.796875 -22.925781 4.265625 -25.53125 C 5.734375 -28.132812 7.738281 -30.171875 10.28125 -31.640625 C 12.820312 -33.109375 15.644531 -33.84375 18.75 -33.84375 C 22.382812 -33.84375 25.5625 -32.960938 28.28125 -31.203125 C 31 -29.453125 32.984375 -26.960938 34.234375 -23.734375 L 29 -23.734375 C 28.070312 -25.742188 26.738281 -27.289062 25 -28.375 C 23.257812 -29.46875 21.175781 -30.015625 18.75 -30.015625 C 16.414062 -30.015625 14.320312 -29.46875 12.46875 -28.375 C 10.613281 -27.289062 9.15625 -25.75 8.09375 -23.75 C 7.039062 -21.75 6.515625 -19.410156 6.515625 -16.734375 C 6.515625 -14.078125 7.039062 -11.75 8.09375 -9.75 C 9.15625 -7.757812 10.613281 -6.21875 12.46875 -5.125 C 14.320312 -4.039062 16.414062 -3.5 18.75 -3.5 C 21.175781 -3.5 23.257812 -4.035156 25 -5.109375 C 26.738281 -6.179688 28.070312 -7.722656 29 -9.734375 L 34.234375 -9.734375 C 32.984375 -6.535156 31 -4.066406 28.28125 -2.328125 C 25.5625 -0.585938 22.382812 0.28125 18.75 0.28125 C 15.644531 0.28125 12.820312 -0.441406 10.28125 -1.890625 C 7.738281 -3.347656 5.734375 -5.367188 4.265625 -7.953125 C 2.796875 -10.546875 2.0625 -13.472656 2.0625 -16.734375 Z M 2.0625 -16.734375 "/></g></g></g><g fill="#737373" fill-opacity="1"><g transform="translate(108.859147, 51.633233)"><g><path d="M 14.28125 0.328125 C 12.082031 0.328125 10.109375 -0.0625 8.359375 -0.84375 C 6.617188 -1.625 5.253906 -2.707031 4.265625 -4.09375 C 3.273438 -5.488281 2.765625 -7.097656 2.734375 -8.921875 L 7.375 -8.921875 C 7.539062 -7.347656 8.191406 -6.023438 9.328125 -4.953125 C 10.460938 -3.890625 12.113281 -3.359375 14.28125 -3.359375 C 16.363281 -3.359375 18.003906 -3.875 19.203125 -4.90625 C 20.398438 -5.945312 21 -7.285156 21 -8.921875 C 21 -10.191406 20.644531 -11.226562 19.9375 -12.03125 C 19.238281 -12.832031 18.359375 -13.441406 17.296875 -13.859375 C 16.242188 -14.273438 14.820312 -14.722656 13.03125 -15.203125 C 10.832031 -15.773438 9.066406 -16.347656 7.734375 -16.921875 C 6.410156 -17.492188 5.273438 -18.394531 4.328125 -19.625 C 3.390625 -20.851562 2.921875 -22.507812 2.921875 -24.59375 C 2.921875 -26.414062 3.382812 -28.03125 4.3125 -29.4375 C 5.238281 -30.84375 6.539062 -31.925781 8.21875 -32.6875 C 9.894531 -33.457031 11.820312 -33.84375 14 -33.84375 C 17.132812 -33.84375 19.695312 -33.054688 21.6875 -31.484375 C 23.6875 -29.921875 24.816406 -27.847656 25.078125 -25.265625 L 20.28125 -25.265625 C 20.113281 -26.546875 19.4375 -27.671875 18.25 -28.640625 C 17.070312 -29.617188 15.507812 -30.109375 13.5625 -30.109375 C 11.738281 -30.109375 10.25 -29.632812 9.09375 -28.6875 C 7.945312 -27.75 7.375 -26.429688 7.375 -24.734375 C 7.375 -23.523438 7.71875 -22.535156 8.40625 -21.765625 C 9.09375 -20.992188 9.941406 -20.410156 10.953125 -20.015625 C 11.960938 -19.617188 13.378906 -19.160156 15.203125 -18.640625 C 17.398438 -18.035156 19.171875 -17.4375 20.515625 -16.84375 C 21.859375 -16.257812 23.007812 -15.347656 23.96875 -14.109375 C 24.925781 -12.878906 25.40625 -11.210938 25.40625 -9.109375 C 25.40625 -7.472656 24.972656 -5.9375 24.109375 -4.5 C 23.242188 -3.0625 21.960938 -1.894531 20.265625 -1 C 18.578125 -0.113281 16.582031 0.328125 14.28125 0.328125 Z M 14.28125 0.328125 "/></g></g></g></g></g></svg>